<?xml version="1.0" encoding="utf-8"?>
<svg xmlns="http://www.w3.org/2000/svg"
     viewBox="0 0 1200 1200">
    <title>Novadrop</title>

    <defs>
        <radialGradient id="center">
            <stop offset=".1"
                  stop-color="#ffff00" />
            <stop offset="1"
                  stop-color="#ffff00"
                  stop-opacity="0" />
        </radialGradient>
    </defs>

    <g>
        <path d="m486.61 101.7 196.68 338.34-8.3398-56.449 348.38-287.7-268.13 485.52 56.988-52.691 327.8 66.867-428.28 129.97-38.363-115.08 32.773 41.797 218.89-8.4492-267.25-94.129 34.512-3.2539 88.152-167.61-203.43 149.61 28.441-42.574-57.77-138.5-12.816 84.395-54.551-38.09zm225.9 625.5 73.188-6.0234 155.14 325.46-362.27-280.69 54.215-91.355-9.2031 43.922 120.5 104.45zm-137.35 43.98 37.883 57.422-143.82 275.52-21.758-407.43 113.59-9.168-39.863 12.059-13.234 184.68zm-137.47-73.777-20.855 69.852-356.83 100.85 361.86-313.57 87.59 72.613-36.875-14.305-144.5 93.336zm-20.281-146.89-51.012 14.867-279.82-240.85 446.26 118.95-15.719 102.61-6.4688-28.414-220.68-72.406z"
              fill="#ff9900" />

        <circle cx="600"
                cy="600"
                r="500"
                fill="url(#center)" />
    </g>
</svg>
